<svg width="16" height="16" viewBox="0 0 16 16" fill="none" xmlns="http://www.w3.org/2000/svg">
  <circle cx="8" cy="8" r="7" fill="none" stroke="#7A288A" stroke-width="2"></circle>
  <path d="M8 8h-2v-2h2v2zm0 0h-2v2h2v-2zm0 0h2v-2h-2v2zm0 0h-2v2h2v-2zm0 0h2v2h-2v-2z" fill="#E91E63"></path>
  <path d="M8 8h2v2h-2v-2zm0 0h-2v2h2v-2zm0 0h2v-2h-2v2zm0 0h-2v2h2v-2z" fill="#7A288A"></path>
  <path d="M8 8h2v-2h-2v2zm0 0h-2v2h2v-2zm0 0h2v2h-2v-2zm0 0h-2v-2h2v2z" fill="#E91E63"></path>
  <path d="M8 8h2v2h-2v-2zm0 0h-2v2h2v-2zm0 0h2v-2h-2v2zm0 0h-2v2h2v-2z" fill="#7A288A"></path>
</svg> 